      ßßßßßßßßßßßßßßßßßßßßßßßßßßßßßßßßßßßßßßßßßßßßßßßßßßßßßßßßßßßßßßßßßßßßßß

                        Û°°°°°°°°°°°°°°°°°°°°°°Û
                       ÛÛ Awake[2009]DvDrip-LW ÛÛ
                        Û°°°°°°°°°°°°°°°°°°°°°°Û

File Name    : Awake[2009]DvDrip-LW
Store Date   : 2007
Type         : Movie
Format       : AVI
File Size    : 697 Mb
Duration     : 01:24:07
Language     : English
Source       : DvD
Subtitles    : None
Genre        : Crime | Thriller
IMDB Link    : http://www.imdb.com/title/tt0211933/
IMDB Rating  : 6.5/10
IMDB Votes   : 20,911 Votes
     ÜÜÜÜÜÜÜÜÜÜÜÜÜÜÜÜÜÜÜÜÜÜÜÜÜÜÜÜÜÜÜÜÜÜÜÜÜÜÜÜÜÜÜÜÜÜÜÜÜÜÜÜÜÜÜÜÜÜÜÜÜÜÜÜÜÜÜÜÜÜ
 
                        Û°°°°°°°°°°°°°°°°°°°°°°°°Û
                       ÛÛ       Video Info       ÛÛ
                        Û°°°°°°°°°°°°°°°°°°°°°°°°Û

Format                           : MPEG-4 Visual
Format profile                   : Streaming Video@L1
Format settings, BVOP            : Yes
Format settings, QPel            : No
Format settings, GMC             : No warppoints
Format settings, Matrix          : Custom
Codec ID                         : XVID
Codec ID/Hint                    : XviD
Duration                         : 1h 24mn
Bit rate                         : 960 Kbps
Width                            : 640 pixels
Height                           : 272 pixels
Display aspect ratio             : 2.35
Frame rate                       : 23.976 fps
Resolution                       : 24 bits
Colorimetry                      : 4:2:0
Scan type                        : Progressive
Bits/(Pixel*Frame)               : 0.230
Stream size                      : 578 MiB (83%)
Writing library                  : XviD 1.2.1
ÜÜÜÜÜÜÜÜÜÜÜÜÜÜÜÜÜÜÜÜÜÜÜÜÜÜÜÜÜÜÜÜÜÜÜÜÜÜÜÜÜÜÜÜÜÜÜÜÜÜÜÜÜÜÜÜÜÜÜÜÜÜÜÜÜÜÜÜÜÜ

                         Û°°°°°°°°°°°°°°°°°°°°°°°°Û
                        ÛÛ      Sound Info        ÛÛ
                         Û°°°°°°°°°°°°°°°°°°°°°°°°Û

Format                           : MPEG Audio
Format version                   : Version 1
Format profile                   : Layer 3
Codec ID                         : 55
Codec ID/Hint                    : MP3
Duration                         : 1h 24mn
Bit rate mode                    : Constant
Bit rate                         : 192 Kbps
Minimum bit rate                 : 192 Kbps
Channel(s)                       : 2 channels
Sampling rate                    : 48.0 KHz
Resolution                       : 16 bits
Stream size                      : 116 MiB (17%)
Alignment                        : Aligned on interleaves
Interleave, duration             : 83 ms (2.00 video frames)
Interleave, preload duration     : 504 ms
Writing library                  : LAME3.98r
Encoding settings                : CBR
    ÜÜÜÜÜÜÜÜÜÜÜÜÜÜÜÜÜÜÜÜÜÜÜÜÜÜÜÜÜÜÜÜÜÜÜÜÜÜÜÜÜÜÜÜÜÜÜÜÜÜÜÜÜÜÜÜÜÜÜÜÜÜÜÜÜÜÜÜÜÜ

                          Û°°°°°°°°°°°°°°°°°°°°°°°°Û
                         ÛÛ          Plot          ÛÛ
                          Û°°°°°°°°°°°°°°°°°°°°°°°°Û

While undergoing a heart transplant, Clay (Hayden 
Christensen) experiences "anesthetic awareness," 
a condition that allows him to see and feel everything 
that's happening to him but leaves him paralyzed 
and unable to do anything about it. From his unique 
and painful vantage point, Clay learns troubling 
truths about his young wife (Jessica Alba) as she 
struggles with her own demons. Terrence Howard and 
Lena Olin co-star.

Starring: Hayden Christensen, Lena Olin

Director: Joby Harold
    ÜÜÜÜÜÜÜÜÜÜÜÜÜÜÜÜÜÜÜÜÜÜÜÜÜÜÜÜÜÜÜÜÜÜÜÜÜÜÜÜÜÜÜÜÜÜÜÜÜÜÜÜÜÜÜÜÜÜÜÜÜÜÜÜÜÜÜÜÜÜ